<svg xmlns="http://www.w3.org/2000/svg" 
    xmlns:xlink="http://www.w3.org/1999/xlink" viewBox="0 0 3372.9355 500">

    <title>logo-2019-v2-with-text</title>
    <g>
        <g >
            <path d="M500,250c0,138.071-111.929,250-250,250S0,388.071,0,250,111.929,0,250,0,500,111.929,500,250" style="fill:white"/>
        </g>
        <g >
            <path d="M246.9253,231.0415a150.6221,150.6221,0,0,1-137.438-89.334,137.4375,137.4375,0,0,0,274.875,0,150.6206,150.6206,0,0,1-137.437,89.334" style="fill:#EEEEEE"/>
            <path d="M378.501,130.6416c-26.197,17.109-90.311,59.168-131.576,59.168a220.899,220.899,0,0,1-105.326-26.938,100.0785,100.0785,0,0,1-32.112-21.165,150.3879,150.3879,0,0,0,274.875,0Z" style="fill:white"/>
            <path d="M267.7705,297.2051a185.7565,185.7565,0,0,1-196.955-45.557,169.4952,169.4952,0,1,0,318.547-115.941,185.7519,185.7519,0,0,1-121.592,161.498" style="fill:#EEEEEE"/>
            <path d="M378.501,130.6416c-23.143,30.877-80.3,101.376-128.122,118.782a272.442,272.442,0,0,1-133.422,13.208c-16.193-.841-31.734-4.265-46.141-10.983a185.4666,185.4666,0,0,0,318.546-115.942Z" style="fill:white"/>
            <path d="M324.6807,339.0361a197.2678,197.2678,0,0,1-213.094,26.074,180,180,0,1,0,275.776-231.403,197.2676,197.2676,0,0,1-62.682,205.329" style="fill:#EEEEEE"/>
            <path d="M378.501,130.6416c-11.88,39.219-47.13,132.288-88.53,167.027a289.3309,289.3309,0,0,1-128.35,61.643c-16.464,5.043-33.217,7.27-50.034,5.799a196.9606,196.9606,0,0,0,275.775-231.404Z" style="fill:white"/>
        </g>
    </g>
    <g style="fill: white">
        <path d="M743,404.78C725,421.5934,704,430,674.5,430c-38.5,0-62-15.8242-78-35.6044C571.5,364.2308,570,317.7473,570,250s1.5-114.2308,26.5-144.3956C612.5,85.8242,636,70,674.5,70,704,70,725,78.4066,743,95.22c18.5,17.3077,30.5,45,32,78.6264H704c-.5-9.89-1.5-19.78-5.5-27.1978-4-8.4066-11-13.3516-24-13.3516s-20,5.9341-24,13.8462C642,163.4615,641,207.4725,641,250s1,86.5385,9.5,102.8571c4,7.9121,11,13.8462,24,13.8462s20-5.44,24-13.8462c4-7.4176,5-17.3077,5.5-27.1978h71C773.5,359.2857,761.5,387.4725,743,404.78Z"/>
        <path d="M918,426.044V404.2857c-5.5,6.4286-10.5,12.8571-17.5,17.3077-8,5.44-16,8.4066-29.5,8.4066-25,0-40-6.9231-54.5-24.7253C805,391.4286,801,371.6484,801,346.4286c0-24.2308,9-45,26-59.3407,13.5-11.3736,31-18.7912,66-18.7912h20.5V237.6374c0-14.8352-7.5-23.2418-20-23.2418-7,0-11,2.4725-14.5,6.4286-4,4.9451-6,10.8791-6,18.2967H806c0-21.7582,7-41.5385,24.5-59.3407,13.5-13.3516,39-23.7363,62.5-23.7363,23,0,46,5.9341,62,21.7582,15,14.8352,25.5,36.0989,25.5,66.2637V426.044Zm-4.5-111.7582H902c-11,0-18.5,0-25.5,6.4286-5.5,4.9451-8.5,15.8242-8.5,22.7473,0,19.2857,9,28.6813,23,28.6813,12,0,22.5-9.89,22.5-28.6813Z"/>
        <path d="M1166.9932,407.7473c-17.5,17.3077-39,22.2527-63,22.2527s-49-7.9121-64-23.2418c-15.5-16.3187-25-34.1209-25.5-60.8242h66c.5,7.4176,3,13.3516,7,17.3077,4,4.4505,10.5,6.9231,16.5,6.9231,7,0,11-.989,16-5.44,3.5-2.967,5.5-9.3956,5.5-14.8352a23.5756,23.5756,0,0,0-4.5-14.8352c-4-4.9451-10-8.4066-17.5-11.3736l-37.5-14.3407c-19-7.4176-33-17.3077-41.5-30.6593-6-9.89-9-21.7582-9-37.0879,0-28.6813,9.5-45.989,24.5-61.3187,16-16.3187,39.5-24.2308,63.5-24.2308,23.5,0,46,7.9121,61,21.7582,14.5,13.8462,25,32.6374,25,59.8352h-65.5c0-6.9231-2-12.8571-5.5-16.8132a21.793,21.793,0,0,0-15-6.4286,22.0358,22.0358,0,0,0-15.5,5.9341c-4,3.4615-5.5,8.4066-5.5,14.8352,0,4.9451,1,8.4066,3.5,11.8681,3,4.9451,9,8.9011,17,11.8681l37,13.8462c19,7.4176,31.5,15.8242,40.5,28.1868,7,9.3956,12,23.7363,12,43.5165C1192.4932,373.6264,1180.9932,393.4066,1166.9932,407.7473Z"/>
        <path d="M1339.4883,426.044V406.7582c-5.5,6.4286-12,12.8571-19.5,16.8132a57.26,57.26,0,0,1-25.5,6.4286c-24.5,0-39-6.9231-52-22.2527-10.5-12.8571-15-27.1978-15-60.33V160h67V346.4286c0,16.3187,9,24.2308,21,24.2308s21-7.9121,21-24.2308V160h67V426.044Z"/>
        <path d="M1554.4814,426.044V404.2857c-5.5,6.4286-10.5,12.8571-17.5,17.3077-8,5.44-16,8.4066-29.5,8.4066-25,0-40-6.9231-54.5-24.7253-11.5-13.8462-15.5-33.6264-15.5-58.8462,0-24.2308,9-45,26-59.3407,13.5-11.3736,31-18.7912,66-18.7912h20.5V237.6374c0-14.8352-7.5-23.2418-20-23.2418-7,0-11,2.4725-14.5,6.4286-4,4.9451-6,10.8791-6,18.2967h-67c0-21.7582,7-41.5385,24.5-59.3407,13.5-13.3516,39-23.7363,62.5-23.7363,23,0,46,5.9341,62,21.7582,15,14.8352,25.5,36.0989,25.5,66.2637V426.044Zm-4.5-111.7582h-11.5c-11,0-18.5,0-25.5,6.4286-5.5,4.9451-8.5,15.8242-8.5,22.7473,0,19.2857,9,28.6813,23,28.6813,12,0,22.5-9.89,22.5-28.6813Z"/>
        <path d="M1691.9756,409.7253c-19-13.3516-31-34.6154-31-69.2308V73.956h67V336.044c0,20.7692,10.5,30.6593,33,30.6593V426.044C1733.4756,426.044,1711.4756,423.5714,1691.9756,409.7253Z"/>
        <path d="M2059.4717,402.8022c-15,15.33-38.5,23.2418-74,23.2418h-103V73.956h103c35.5,0,59,7.9121,74.5,22.7473,17,16.3187,23.5,34.6154,23.5,73.1868,0,25.22-4.5,44.5055-19.5,59.3407a61.1091,61.1091,0,0,1-16.5,11.8681,62.1306,62.1306,0,0,1,16.5,12.3626c15,15.33,19.5,34.6154,19.5,69.2308C2083.4717,363.2418,2077.4717,384.5055,2059.4717,402.8022Zm-82.5-265.5495h-23.5v75.1648h23.5c27.5,0,35.5-11.8681,35.5-37.5824S2004.9717,137.2527,1976.9717,137.2527Zm-1,134.5055h-22.5v90.989h22.5c28.5,0,36.5-13.3516,36.5-45.4945S2003.4717,271.7582,1975.9717,271.7582Z"/>
        <path d="M2234.4668,426.044V404.2857c-5.5,6.4286-10.5,12.8571-17.5,17.3077-8,5.44-16,8.4066-29.5,8.4066-25,0-40-6.9231-54.5-24.7253-11.5-13.8462-15.5-33.6264-15.5-58.8462,0-24.2308,9-45,26-59.3407,13.5-11.3736,31-18.7912,66-18.7912h20.5V237.6374c0-14.8352-7.5-23.2418-20-23.2418-7,0-11,2.4725-14.5,6.4286-4,4.9451-6,10.8791-6,18.2967h-67c0-21.7582,7-41.5385,24.5-59.3407,13.5-13.3516,39-23.7363,62.5-23.7363,23,0,46,5.9341,62,21.7582,15,14.8352,25.5,36.0989,25.5,66.2637V426.044Zm-4.5-111.7582h-11.5c-11,0-18.5,0-25.5,6.4286-5.5,4.9451-8.5,15.8242-8.5,22.7473,0,19.2857,9,28.6813,23,28.6813,12,0,22.5-9.89,22.5-28.6813Z"/>
        <path d="M2450.9609,426.044V239.6154c0-16.3187-9-24.2308-21-24.2308s-21,7.9121-21,24.2308V426.044h-67V160h64v19.2857c5.5-6.4286,12-12.8571,19.5-16.8132a57.26,57.26,0,0,1,25.5-6.4286c24.5,0,39,6.9231,52,22.2527,10.5,12.8571,15,27.1978,15,60.33V426.044Z"/>
        <path d="M2667.9541,426.044V404.2857c-5.5,6.4286-10.5,12.8571-17.5,17.3077-8,5.44-16,8.4066-29.5,8.4066-25,0-40-6.9231-54.5-24.7253-11.5-13.8462-15.5-33.6264-15.5-58.8462,0-24.2308,9-45,26-59.3407,13.5-11.3736,31-18.7912,66-18.7912h20.5V237.6374c0-14.8352-7.5-23.2418-20-23.2418-7,0-11,2.4725-14.5,6.4286-4,4.9451-6,10.8791-6,18.2967h-67c0-21.7582,7-41.5385,24.5-59.3407,13.5-13.3516,39-23.7363,62.5-23.7363,23,0,46,5.9341,62,21.7582,15,14.8352,25.5,36.0989,25.5,66.2637V426.044Zm-4.5-111.7582h-11.5c-11,0-18.5,0-25.5,6.4286-5.5,4.9451-8.5,15.8242-8.5,22.7473,0,19.2857,9,28.6813,23,28.6813,12,0,22.5-9.89,22.5-28.6813Z"/>
        <path d="M2884.4482,426.044V239.6154c0-16.3187-9-24.2308-21-24.2308s-21,7.9121-21,24.2308V426.044h-67V160h64v19.2857c5.5-6.4286,12-12.8571,19.5-16.8132a57.26,57.26,0,0,1,25.5-6.4286c24.5,0,39,6.9231,52,22.2527,10.5,12.8571,15,27.1978,15,60.33V426.044Z"/>
        <path d="M3101.4414,426.044V404.2857c-5.5,6.4286-10.5,12.8571-17.5,17.3077-8,5.44-16,8.4066-29.5,8.4066-25,0-40-6.9231-54.5-24.7253-11.5-13.8462-15.5-33.6264-15.5-58.8462,0-24.2308,9-45,26-59.3407,13.5-11.3736,31-18.7912,66-18.7912h20.5V237.6374c0-14.8352-7.5-23.2418-20-23.2418-7,0-11,2.4725-14.5,6.4286-4,4.9451-6,10.8791-6,18.2967h-67c0-21.7582,7-41.5385,24.5-59.3407,13.5-13.3516,39-23.7363,62.5-23.7363,23,0,46,5.9341,62,21.7582,15,14.8352,25.5,36.0989,25.5,66.2637V426.044Zm-4.5-111.7582h-11.5c-11,0-18.5,0-25.5,6.4286-5.5,4.9451-8.5,15.8242-8.5,22.7473,0,19.2857,9,28.6813,23,28.6813,12,0,22.5-9.89,22.5-28.6813Z"/>
        <path d="M3350.4355,407.7473c-17.5,17.3077-39,22.2527-63,22.2527s-49-7.9121-64-23.2418c-15.5-16.3187-25-34.1209-25.5-60.8242h66c.5,7.4176,3,13.3516,7,17.3077,4,4.4505,10.5,6.9231,16.5,6.9231,7,0,11-.989,16-5.44,3.5-2.967,5.5-9.3956,5.5-14.8352a23.5756,23.5756,0,0,0-4.5-14.8352c-4-4.9451-10-8.4066-17.5-11.3736l-37.5-14.3407c-19-7.4176-33-17.3077-41.5-30.6593-6-9.89-9-21.7582-9-37.0879,0-28.6813,9.5-45.989,24.5-61.3187,16-16.3187,39.5-24.2308,63.5-24.2308,23.5,0,46,7.9121,61,21.7582,14.5,13.8462,25,32.6374,25,59.8352h-65.5c0-6.9231-2-12.8571-5.5-16.8132a21.793,21.793,0,0,0-15-6.4286,22.0358,22.0358,0,0,0-15.5,5.9341c-4,3.4615-5.5,8.4066-5.5,14.8352,0,4.9451,1,8.4066,3.5,11.8681,3,4.9451,9,8.9011,17,11.8681l37,13.8462c19,7.4176,31.5,15.8242,40.5,28.1868,7,9.3956,12,23.7363,12,43.5165C3375.9355,373.6264,3364.4355,393.4066,3350.4355,407.7473Z"/>
    </g>
</svg>