<?xml version="1.0" encoding="utf-8"?>
<svg version="1.1" id="Layer_1" 
	xmlns="http://www.w3.org/2000/svg" 
	xmlns:xlink="http://www.w3.org/1999/xlink" x="0px" y="0px" width="1688.722px" height="560px" viewBox="0 0 1688.722 560" enable-background="new 0 0 1688.722 560" xml:space="preserve">

	<g style="fill:white">
		<path d="M280,0C125.36,0,0,125.36,0,280s125.36,280,280,280s280-125.36,280-280S434.64,0,280,0z M280,490
		c-115.98,0-210-94.02-210-210c0-115.98,94.02-210,210-210s210,94.02,210,210C490,395.98,395.98,490,280,490z"/>
		<polygon points="228,351 359.586,351 394.487,316 228,316 228,281 429.388,281 483.355,226.879 130.882,132 227.562,483.399 
		324.685,386 228,386 "/>
		<g>
			<path d="M910.204,304.709H760.702L743.26,419.881h178.019l-9.413,62.016H653.282l60.354-403.102h258.029l-9.137,62.292H785.065
			l-15.228,101.329h149.779L910.204,304.709z"/>
			<path d="M1105.94,277.301l1.661,0.276l60.078-95.238h91.361l-112.402,148.118l70.598,151.439h-91.086l-34.053-99.391
			l-63.953,99.391h-91.363l116.003-151.439L984.4,182.339h90.809L1105.94,277.301z"/>
			<path d="M1380.027,425.695c13.471,0,25.146-4.244,35.022-12.736c9.871-8.487,15.919-19.656,18.134-33.499h73.366l0.555,1.661
			c-4.062,31.38-19.061,56.989-44.989,76.827c-25.934,19.843-56.341,29.763-91.224,29.763c-42.637,0-74.336-14.35-95.101-43.052
			c-20.764-28.697-27.823-64.736-21.179-108.112l1.107-8.305c6.826-45.587,24.268-82.227,52.325-109.912
			c28.054-27.686,64.321-41.528,108.804-41.528c35.252,0,62.799,10.616,82.642,31.838c19.839,21.227,26.808,48.913,20.903,83.057
			l-0.555,1.384h-73.92c2.396-15.872,0.32-28.836-6.229-38.898c-6.554-10.058-17.212-15.088-31.977-15.088
			c-20.119,0-36.039,8.492-47.758,25.47c-11.723,16.983-19.519,38.207-23.394,63.678l-1.107,8.305
			c-4.248,27.504-3.231,49.237,3.045,65.2C1344.771,417.714,1358.614,425.695,1380.027,425.695z"/>
			<path d="M1623.937,481.896h-80.842l64.785-431.895h80.842L1623.937,481.896z"/>
		</g>
	</g>
</svg>
