<?xml version="1.0" encoding="utf-8"?>
<svg version="1.1" id="Layer_1"
     xmlns="http://www.w3.org/2000/svg"
     xmlns:xlink="http://www.w3.org/1999/xlink"
     viewBox="70 240 430 100">
    <g style="fill:white">
        <path d="M200.74,314.57h-9.85v-16.62c0-2.76-0.42-4.77-1.25-6.04c-0.83-1.27-1.75-1.91-2.76-1.91
		c-0.83,0-1.57,0.23-2.2,0.69c-0.63,0.46-1.17,1.05-1.61,1.77c-0.44,0.72-0.78,1.57-1.02,2.53c-0.24,0.96-0.36,1.93-0.36,2.89v16.68
		h-9.85v-16.62c0-2.76-0.42-4.77-1.25-6.04c-0.83-1.27-1.75-1.91-2.76-1.91c-0.66,0-1.29,0.15-1.91,0.46
		c-0.61,0.31-1.16,0.78-1.64,1.41c-0.48,0.64-0.88,1.46-1.18,2.46c-0.31,1.01-0.46,2.21-0.46,3.61v16.62h-9.85v-29.56h9.85v2.17
		c1.05-1.14,2.27-1.95,3.65-2.43c1.38-0.48,2.84-0.72,4.37-0.72c2.06,0,3.83,0.5,5.32,1.51c1.49,1.01,2.69,2.23,3.61,3.68
		c1.01-1.49,2.39-2.73,4.14-3.71c1.75-0.98,3.74-1.48,5.98-1.48c1.14,0,2.35,0.22,3.65,0.66c1.29,0.44,2.48,1.19,3.58,2.27
		c1.09,1.07,2,2.54,2.73,4.4c0.72,1.86,1.08,4.24,1.08,7.13V314.57z"/>
        <path d="M256.16,287.44c1.14-1.18,2.5-2.06,4.07-2.63c1.58-0.57,3.22-0.85,4.93-0.85c2.36,0,4.4,0.39,6.11,1.18
		c1.71,0.79,3.12,1.85,4.24,3.19c1.12,1.34,1.95,2.86,2.5,4.57s0.82,3.48,0.82,5.32c0,2.06-0.28,4.12-0.85,6.18
		c-0.57,2.06-1.45,3.9-2.63,5.52c-1.18,1.62-2.68,2.93-4.5,3.94c-1.82,1.01-3.97,1.51-6.47,1.51c-1.53,0-2.98-0.27-4.34-0.82
		c-1.36-0.55-2.65-1.5-3.88-2.86v16.49h-9.85v-43.16h9.85V287.44z M262.21,289.02c-1.01,0-1.88,0.3-2.63,0.89
		c-0.75,0.59-1.37,1.37-1.87,2.33c-0.5,0.96-0.88,2.07-1.12,3.32c-0.24,1.25-0.36,2.53-0.36,3.84c0,1.75,0.19,3.3,0.56,4.63
		c0.37,1.34,0.86,2.46,1.45,3.38s1.27,1.61,2.04,2.07c0.76,0.46,1.54,0.69,2.33,0.69c0.88,0,1.65-0.31,2.33-0.92
		c0.68-0.61,1.25-1.41,1.71-2.4c0.46-0.98,0.8-2.11,1.02-3.38c0.22-1.27,0.33-2.56,0.33-3.88s-0.12-2.61-0.36-3.88
		c-0.24-1.27-0.59-2.4-1.05-3.38c-0.46-0.98-1.06-1.78-1.81-2.4C264.02,289.32,263.17,289.02,262.21,289.02z"/>
        <path d="M285.25,285.01h9.79v2.63c1.27-1.27,2.67-2.2,4.2-2.79c1.53-0.59,3.09-0.89,4.66-0.89
		c4.38,0,7.49,1.23,9.33,3.68c1.84,2.45,2.76,6.13,2.76,11.04v15.9H306v-15.9c0-3.15-0.49-5.47-1.48-6.96
		c-0.98-1.49-2.09-2.23-3.32-2.23c-0.75,0-1.48,0.23-2.2,0.69c-0.72,0.46-1.38,1.13-1.97,2c-0.59,0.88-1.06,1.95-1.41,3.22
		c-0.35,1.27-0.53,2.72-0.53,4.34v14.85h-9.85V285.01z"/>
        <path d="M339.77,284.03c2.89,0,5.42,0.46,7.59,1.38s3.97,2.12,5.42,3.61c1.44,1.49,2.54,3.2,3.29,5.12
		c0.74,1.93,1.12,3.88,1.12,5.85c0,1.97-0.36,3.89-1.08,5.75c-0.72,1.86-1.81,3.51-3.25,4.96c-1.44,1.45-3.25,2.61-5.42,3.48
		c-2.17,0.88-4.72,1.31-7.65,1.31c-2.93,0-5.48-0.44-7.65-1.31c-2.17-0.88-3.97-2.04-5.42-3.48c-1.45-1.45-2.53-3.1-3.25-4.96
		c-0.72-1.86-1.08-3.78-1.08-5.75c0-1.97,0.37-3.92,1.12-5.85c0.74-1.93,1.84-3.63,3.28-5.12c1.44-1.49,3.25-2.69,5.42-3.61
		S336.88,284.03,339.77,284.03z M339.77,311.35c1.09,0,2.07-0.33,2.92-0.98c0.85-0.66,1.55-1.52,2.1-2.59
		c0.55-1.07,0.96-2.29,1.25-3.65c0.28-1.36,0.43-2.76,0.43-4.2c0-1.44-0.14-2.86-0.43-4.24c-0.28-1.38-0.7-2.62-1.25-3.71
		c-0.55-1.09-1.25-1.97-2.1-2.63c-0.85-0.66-1.83-0.98-2.92-0.98c-1.14,0-2.12,0.33-2.96,0.98c-0.83,0.66-1.52,1.53-2.07,2.63
		c-0.55,1.1-0.96,2.33-1.25,3.71c-0.29,1.38-0.43,2.79-0.43,4.24c0,1.45,0.14,2.85,0.43,4.2c0.28,1.36,0.7,2.57,1.25,3.65
		c0.55,1.07,1.24,1.94,2.07,2.59C337.65,311.02,338.63,311.35,339.77,311.35z"/>
        <path d="M411.57,314.57h-9.85v-16.62c0-2.76-0.42-4.77-1.25-6.04c-0.83-1.27-1.75-1.91-2.76-1.91
		c-0.83,0-1.57,0.23-2.2,0.69c-0.64,0.46-1.17,1.05-1.61,1.77c-0.44,0.72-0.78,1.57-1.02,2.53c-0.24,0.96-0.36,1.93-0.36,2.89v16.68
		h-9.85v-16.62c0-2.76-0.42-4.77-1.25-6.04c-0.83-1.27-1.75-1.91-2.76-1.91c-0.66,0-1.29,0.15-1.9,0.46
		c-0.61,0.31-1.16,0.78-1.64,1.41c-0.48,0.64-0.88,1.46-1.18,2.46c-0.31,1.01-0.46,2.21-0.46,3.61v16.62h-9.85v-29.56h9.85v2.17
		c1.05-1.14,2.27-1.95,3.65-2.43c1.38-0.48,2.84-0.72,4.37-0.72c2.06,0,3.83,0.5,5.32,1.51c1.49,1.01,2.69,2.23,3.61,3.68
		c1.01-1.49,2.39-2.73,4.14-3.71c1.75-0.98,3.74-1.48,5.98-1.48c1.14,0,2.35,0.22,3.65,0.66c1.29,0.44,2.48,1.19,3.58,2.27
		c1.09,1.07,2,2.54,2.73,4.4c0.72,1.86,1.08,4.24,1.08,7.13V314.57z"/>
        <path d="M480.04,272.33h9.85v42.24h-9.85v-2.69c-1.14,1.18-2.41,2.06-3.81,2.63c-1.4,0.57-2.87,0.85-4.4,0.85
		c-2.28,0-4.33-0.39-6.14-1.18c-1.82-0.79-3.36-1.87-4.63-3.25c-1.27-1.38-2.25-2.97-2.92-4.76c-0.68-1.79-1.02-3.72-1.02-5.78
		c0-1.88,0.31-3.8,0.92-5.75c0.61-1.95,1.51-3.71,2.69-5.29c1.18-1.58,2.64-2.87,4.37-3.88c1.73-1.01,3.71-1.51,5.95-1.51
		c1.71,0,3.35,0.29,4.93,0.85c1.58,0.57,2.93,1.45,4.07,2.63V272.33z M473.99,289.02c-1.01,0-1.87,0.32-2.6,0.95
		c-0.72,0.64-1.34,1.48-1.84,2.53c-0.5,1.05-0.88,2.24-1.12,3.58c-0.24,1.34-0.36,2.68-0.36,4.04c0,1.31,0.11,2.59,0.33,3.84
		c0.22,1.25,0.56,2.36,1.02,3.35c0.46,0.99,1.04,1.77,1.74,2.36c0.7,0.59,1.51,0.89,2.43,0.89c1.05,0,1.97-0.32,2.76-0.95
		c0.79-0.63,1.44-1.48,1.97-2.53c0.53-1.05,0.93-2.24,1.21-3.58c0.28-1.34,0.43-2.7,0.43-4.11c0-1.31-0.12-2.59-0.36-3.84
		c-0.24-1.25-0.61-2.35-1.12-3.32c-0.5-0.96-1.13-1.74-1.87-2.33C475.87,289.31,475,289.02,473.99,289.02z"/>
        <path d="M230.06,285l9.85,0v29.64h-9.85v-2.69c-1.14,1.18-2.41,2.06-3.81,2.63c-1.4,0.57-2.87,0.85-4.4,0.85
		c-2.28,0-4.33-0.39-6.14-1.18c-1.82-0.79-3.36-1.87-4.63-3.25c-1.27-1.38-2.25-2.97-2.92-4.76c-0.68-1.79-1.02-3.72-1.02-5.78
		c0-1.88,0.31-3.8,0.92-5.75c0.61-1.95,1.51-3.71,2.69-5.29c1.18-1.58,2.64-2.87,4.37-3.88c1.73-1.01,3.71-1.51,5.95-1.51
		c1.71,0,3.35,0.29,4.93,0.85c1.58,0.57,2.93,1.45,4.07,2.63V285z M224.02,289.08c-1.01,0-1.87,0.32-2.6,0.95
		c-0.72,0.64-1.34,1.48-1.84,2.53c-0.5,1.05-0.88,2.24-1.12,3.58c-0.24,1.34-0.36,2.68-0.36,4.04c0,1.31,0.11,2.59,0.33,3.84
		c0.22,1.25,0.56,2.36,1.02,3.35c0.46,0.99,1.04,1.77,1.74,2.36c0.7,0.59,1.51,0.89,2.43,0.89c1.05,0,1.97-0.32,2.76-0.95
		c0.79-0.63,1.44-1.48,1.97-2.53c0.53-1.05,0.93-2.24,1.21-3.58c0.28-1.34,0.43-2.7,0.43-4.11c0-1.31-0.12-2.59-0.36-3.84
		c-0.24-1.25-0.61-2.35-1.12-3.32c-0.5-0.96-1.13-1.74-1.87-2.33C225.9,289.38,225.03,289.08,224.02,289.08z"/>
        <path d="M440.87,284.93l9.85,0v29.64h-9.85v-2.69c-1.14,1.18-2.41,2.06-3.81,2.63c-1.4,0.57-2.87,0.85-4.4,0.85
		c-2.28,0-4.33-0.39-6.14-1.18c-1.82-0.79-3.36-1.87-4.63-3.25c-1.27-1.38-2.25-2.97-2.92-4.76c-0.68-1.79-1.02-3.72-1.02-5.78
		c0-1.88,0.31-3.8,0.92-5.75c0.61-1.95,1.51-3.71,2.69-5.29c1.18-1.58,2.64-2.87,4.37-3.88c1.73-1.01,3.71-1.51,5.95-1.51
		c1.71,0,3.35,0.29,4.93,0.85c1.58,0.57,2.93,1.45,4.07,2.63V284.93z M434.83,289.02c-1.01,0-1.87,0.32-2.6,0.95
		c-0.72,0.64-1.34,1.48-1.84,2.53c-0.5,1.05-0.88,2.24-1.12,3.58c-0.24,1.34-0.36,2.68-0.36,4.04c0,1.31,0.11,2.59,0.33,3.84
		c0.22,1.25,0.56,2.36,1.02,3.35c0.46,0.99,1.04,1.77,1.74,2.36c0.7,0.59,1.51,0.89,2.43,0.89c1.05,0,1.97-0.32,2.76-0.95
		c0.79-0.63,1.44-1.48,1.97-2.53c0.53-1.05,0.93-2.24,1.21-3.58c0.28-1.34,0.43-2.7,0.43-4.11c0-1.31-0.12-2.59-0.36-3.84
		c-0.24-1.25-0.61-2.35-1.12-3.32c-0.5-0.96-1.13-1.74-1.87-2.33C436.71,289.31,435.84,289.02,434.83,289.02z"/>
    </g>
    <path style="fill:white" d="M129.43,276.44c-0.08-1.73-0.26-3.42-0.55-5.06c-0.55-3.19-1.48-6.2-2.73-8.98c-0.48-1.06-1-2.09-1.56-3.07
	c-0.57-0.99-1.17-1.94-1.82-2.85c-1.94-2.72-4.24-5.04-6.81-6.86c-3.96-2.82-8.56-4.43-13.46-4.43c-12.73,0-23.43,10.9-26.24,25.51
	c-0.09,0.47-0.17,0.94-0.24,1.42c-0.01,0.07-0.02,0.14-0.03,0.21c-0.07,0.45-0.12,0.9-0.18,1.36c-0.01,0.1-0.02,0.19-0.03,0.29
	c-0.05,0.46-0.09,0.91-0.12,1.37c-0.01,0.08-0.01,0.16-0.02,0.24c-0.03,0.49-0.06,0.99-0.07,1.49c0,0.01,0,0.02,0,0.02
	c-0.01,0.22-0.01,0.44-0.02,0.67c-0.01,0.19-0.01,0.37-0.01,0.56c0,1.99,0.21,4.03,0.61,6.07c0.68,3.48,1.93,7.01,3.67,10.41
	c0.05,0.09,0.09,0.17,0.13,0.26c1.02,1.97,2.22,3.9,3.56,5.75c0.5,0.7,1.03,1.38,1.58,2.05c1.03,1.26,2.1,2.44,3.18,3.51
	c4.82,4.78,10.04,7.63,14.22,7.63c5.13,0,11.8-4.27,17.41-11.14c4.76-5.84,7.93-12.59,9.07-19.16c0.32-1.79,0.48-3.57,0.48-5.31
	v-0.07C129.47,277.69,129.46,277.06,129.43,276.44z M120.23,260.89c1.87,3.08,3.26,6.66,4.02,10.55c-1.18-0.93-2.43-1.78-3.73-2.56
	c-5.21-3.1-11.27-4.88-17.74-4.88c-1.04,0-2.07,0.05-3.09,0.14c4.44-2.55,9.56-4,15.02-4c1.83,0,3.62,0.16,5.36,0.48
	C120.11,260.71,120.17,260.8,120.23,260.89z M102.77,286.26c-6.27,0-12.11-1.92-16.96-5.22c3.04-8.52,8.86-12.42,16.96-12.42
	c6.24,0,12.05,1.9,16.89,5.16C117.47,281.02,113.26,286.26,102.77,286.26z M80.68,271.94c2.28-12.67,11.2-22.14,21.83-22.14
	c5.05,0,9.72,2.14,13.47,5.75c-0.42-0.02-0.85-0.03-1.28-0.03c-10.13,0-19.27,4.36-25.68,11.32c-2.51,2.73-4.61,5.86-6.17,9.28
	c-0.29,0.62-0.55,1.26-0.8,1.9c-0.65-0.6-1.27-1.24-1.86-1.9C80.26,274.7,80.43,273.3,80.68,271.94z M84.29,293.45
	c-1.87-3.44-3.15-7.03-3.76-10.53c-0.01-0.04-0.02-0.08-0.02-0.12c0.01,0.01,0.03,0.02,0.04,0.03c1.29,1.06,2.65,2.04,4.08,2.92
	c5.3,3.25,11.51,5.12,18.15,5.12c2.07,0,4.09-0.18,6.06-0.53c-5.17,4.06-11.66,6.48-18.69,6.48c-1.35,0-2.68-0.09-3.98-0.26
	C85.48,295.54,84.86,294.51,84.29,293.45z M124.9,278.32c0,1.63-0.16,3.3-0.48,4.99c-1.06,5.66-3.86,11.51-8.03,16.62
	c-4.55,5.57-10.25,9.46-13.88,9.46c-3.29,0-8.29-3.2-12.58-7.94c0.07,0,0.14,0,0.21,0c11.45,0,21.63-5.57,28.04-14.17
	c1.97-2.65,3.59-5.59,4.77-8.74c0.21-0.54,0.4-1.1,0.58-1.66c0.48,0.44,0.93,0.9,1.38,1.38V278.32z"/>
</svg>
